Coordinates
version=1
nRows=14
nColumns=24
inDegrees=yes

Units are S.I. units (second, meters, Newtons, ...)
Angles are in degrees.

endheader
time	pelvis_tilt	pelvis_list	pelvis_rotation	pelvis_tx	pelvis_ty	pelvis_tz	hip_flexion_r	hip_adduction_r	hip_rotation_r	knee_angle_r	ankle_angle_r	subtalar_angle_r	mtp_angle_r	hip_flexion_l	hip_adduction_l	hip_rotation_l	knee_angle_l	ankle_angle_l	subtalar_angle_l	mtp_angle_l	lumbar_extension	lumbar_bending	lumbar_rotation
      1.56000000	     18.75175428	     -6.16017476	      1.27912330	     -0.08495682	      0.95368944	      0.29746624	    -27.62465213	     10.48163801	      0.22726880	     -4.01334627	     21.74609383	      3.32828897	     16.18816914	     10.17657976	     -7.43706884	     -7.54572443	    -39.81698336	     20.29297255	      3.19283920	     43.38751420	    -35.34320972	      9.62237190	      6.75240280
      1.56500000	     18.84233626	     -6.04311336	      1.15975185	     -0.07865919	      0.95317378	      0.29769864	    -28.25201809	     10.30308361	      0.21200687	     -3.85712422	     21.98186542	      3.57193819	     15.93244561	      9.86669689	     -7.19442404	     -7.95988103	    -37.53186127	     19.70408021	      3.54293188	     43.28234368	    -35.43010464	      9.42025827	      6.81096446
      1.57000000	     18.99143872	     -5.92100279	      0.92609776	     -0.07243072	      0.95267923	      0.29816975	    -28.96408864	     10.06707701	      0.46137921	     -3.68344590	     22.24291608	      3.63020376	     15.60688455	      9.42277239	     -6.96413124	     -8.53469757	    -35.16435162	     19.04440777	      3.87653267	     43.20991512	    -35.61512401	      9.12537346	      6.96379088
      1.57500000	     19.12271775	     -5.85771739	      0.62388416	     -0.06630721	      0.95219742	      0.29862973	    -29.58204048	      9.84129192	      0.65353007	     -3.65541760	     22.51597330	      3.88189642	     15.31425699	      8.96413592	     -6.77915628	     -9.12419316	    -32.74768063	     18.28807578	      4.07217781	     42.98417338	    -35.80845751	      8.84763258	      7.20152961
      1.58000000	     19.20343425	     -5.78989828	      0.43728991	     -0.06009949	      0.95154210	      0.29898751	    -30.19203129	      9.67455676	      0.80121274	     -3.52055619	     22.77228643	      4.06296737	     15.02980483	      8.56380480	     -6.56075528	     -9.58997309	    -30.32488049	     17.43452621	      4.36407834	     42.76755956	    -35.92008413	      8.63838592	      7.33200569
      1.58500000	     19.33052054	     -5.71829436	      0.26305310	     -0.05387211	      0.95092236	      0.29920332	    -30.82998263	      9.49009873	      0.92789608	     -3.41234174	     23.00844330	      4.22737902	     14.91957851	      8.10288435	     -6.32425830	    -10.04851185	    -27.90116115	     16.46302555	      4.63227747	     42.61814286	    -36.06277694	      8.42519810	      7.54127143
      1.59000000	     19.45859473	     -5.59715704	      0.15091958	     -0.04747477	      0.95027359	      0.29927791	    -31.49029035	      9.27493820	      0.84303715	     -3.27902124	     23.17974993	      4.55836195	     14.89333714	      7.64478487	     -6.02061699	    -10.45918991	    -25.52071375	     15.52664760	      4.95357988	     42.55304913	    -36.19502585	      8.21575237	      7.59987077
      1.59500000	     19.48704127	     -5.49925103	      0.09582494	     -0.04094593	      0.94942799	      0.29925573	    -32.02333047	      9.11944656	      0.71151241	     -3.20017143	     23.47035007	      4.85542572	     14.84419090	      7.24818652	     -5.71034381	    -10.73189698	    -23.06621383	     14.57079794	      5.32326042	     42.55890326	    -36.20204411	      8.08434638	      7.57591653
      1.60000000	     19.57770123	     -5.39560690	      0.07608854	     -0.03450326	      0.94862346	      0.29913759	    -32.61381499	      8.96486218	      0.58242398	     -3.12416860	     23.75503699	      5.18739105	     14.77287195	      6.77850193	     -5.37498804	    -10.95421475	    -20.63448058	     13.55908206	      5.54312696	     42.61952632	    -36.27439044	      7.95090787	      7.56717690
      1.60500000	     19.52224457	     -5.40409767	     -0.02814607	     -0.02807476	      0.94769259	      0.29920482	    -32.97654970	      8.89400171	      0.55275815	     -3.18795761	     23.99181302	      5.49556976	     14.73363912	      6.50667252	     -5.20270261	    -11.30206692	    -18.38805327	     12.64006325	      5.90723337	     42.77957264	    -36.21148027	      7.88811595	      7.67664662
      1.61000000	     19.52039680	     -5.38871670	     -0.06604915	     -0.02167697	      0.94668574	      0.29917320	    -33.43612041	      8.83707311	      0.51226843	     -3.17369117	     24.22485983	      5.57522195	     14.63631335	      6.18676332	     -4.98500358	    -11.55034548	    -16.18254770	     11.81943334	      6.31381674	     43.19158854	    -36.20519011	      7.83356420	      7.59302025
      1.61500000	     19.45831085	     -5.39844788	     -0.18537681	     -0.01530524	      0.94568938	      0.29914953	    -33.77455223	      8.74916477	      0.52722347	     -3.26289261	     24.45104274	      5.81018217	     14.62252503	      5.89172025	     -4.78587852	    -11.82207023	    -14.03330718	     11.02125340	      6.51928378	     43.47078553	    -36.15157675	      7.77045303	      7.75019942
      1.62000000	     19.49095948	     -5.43459303	     -0.31421291	     -0.00894250	      0.94475631	      0.29916719	    -34.23459891	      8.67749133	      0.50545435	     -3.32276886	     24.63444473	      6.12179359	     14.68893994	      5.50924537	     -4.62118989	    -12.10772283	    -12.02154929	     10.35487371	      6.86970707	     43.57802468	    -36.20368454	      7.70355844	      7.97256974
      1.62500000	     19.43600512	     -5.48002388	     -0.38607096	     -0.00257085	      0.94367750	      0.29913136	    -34.57537257	      8.65450420	      0.47734475	     -3.41798355	     24.79605998	      6.45816809	     14.87802519	      5.29305629	     -4.47495990	    -12.36466342	    -10.26308839	      9.84728556	      7.31182014	     43.66030508	    -36.15275347	      7.68224626	      8.06587836
